# Blender 4.5.1 LTS
# www.blender.org
mtllib battery.mtl
o Cylinder
v 0.000000 -1.164854 -0.505277
v 0.000000 -0.080714 -0.505277
v 0.098575 -1.164854 -0.495569
v 0.098575 -0.080714 -0.495569
v 0.193361 -1.164854 -0.466815
v 0.193361 -0.080714 -0.466815
v 0.280717 -1.164854 -0.420123
v 0.280717 -0.080714 -0.420123
v 0.357285 -1.164854 -0.357285
v 0.357285 -0.080714 -0.357285
v 0.420123 -1.164854 -0.280717
v 0.420123 -0.080714 -0.280717
v 0.466815 -1.164854 -0.193361
v 0.466815 -0.080714 -0.193361
v 0.495569 -1.164854 -0.098575
v 0.495569 -0.080714 -0.098575
v 0.505277 -1.164854 0.000000
v 0.505277 -0.080714 0.000000
v 0.495569 -1.164854 0.098575
v 0.495569 -0.080714 0.098575
v 0.466815 -1.164854 0.193361
v 0.466815 -0.080714 0.193361
v 0.420123 -1.164854 0.280717
v 0.420123 -0.080714 0.280717
v 0.357285 -1.164854 0.357285
v 0.357285 -0.080714 0.357285
v 0.280717 -1.164854 0.420123
v 0.280717 -0.080714 0.420123
v 0.193361 -1.164854 0.466815
v 0.193361 -0.080714 0.466815
v 0.098575 -1.164854 0.495569
v 0.098575 -0.080714 0.495569
v 0.000000 -1.164854 0.505277
v 0.000000 -0.080714 0.505277
v -0.098575 -1.164854 0.495569
v -0.098575 -0.080714 0.495569
v -0.193361 -1.164854 0.466815
v -0.193361 -0.080714 0.466815
v -0.280717 -1.164854 0.420123
v -0.280717 -0.080714 0.420123
v -0.357285 -1.164854 0.357285
v -0.357285 -0.080714 0.357285
v -0.420123 -1.164854 0.280717
v -0.420123 -0.080714 0.280717
v -0.466815 -1.164854 0.193361
v -0.466815 -0.080714 0.193361
v -0.495569 -1.164854 0.098575
v -0.495569 -0.080714 0.098575
v -0.505277 -1.164854 0.000000
v -0.505277 -0.080714 0.000000
v -0.495569 -1.164854 -0.098575
v -0.495569 -0.080714 -0.098575
v -0.466815 -1.164854 -0.193361
v -0.466815 -0.080714 -0.193361
v -0.420123 -1.164854 -0.280717
v -0.420123 -0.080714 -0.280717
v -0.357285 -1.164854 -0.357285
v -0.357285 -0.080714 -0.357285
v -0.280717 -1.164854 -0.420123
v -0.280717 -0.080714 -0.420123
v -0.193361 -1.164854 -0.466815
v -0.193361 -0.080714 -0.466815
v -0.098575 -1.164854 -0.495569
v -0.098575 -0.080714 -0.495569
v 0.029572 -0.064354 -0.148671
v -0.000000 -0.064354 -0.151583
v 0.058008 -0.064354 -0.140045
v 0.084215 -0.064354 -0.126037
v 0.107186 -0.064354 -0.107186
v 0.126037 -0.064354 -0.084215
v 0.140045 -0.064354 -0.058008
v 0.148671 -0.064354 -0.029572
v 0.151583 -0.064354 0.000000
v 0.148671 -0.064354 0.029572
v 0.140045 -0.064354 0.058008
v 0.126037 -0.064354 0.084215
v 0.107186 -0.064354 0.107186
v 0.084215 -0.064354 0.126037
v 0.058008 -0.064354 0.140045
v 0.029572 -0.064354 0.148671
v -0.000000 -0.064354 0.151583
v -0.029572 -0.064354 0.148671
v -0.058008 -0.064354 0.140045
v -0.084215 -0.064354 0.126037
v -0.107186 -0.064354 0.107186
v -0.126037 -0.064354 0.084215
v -0.140045 -0.064354 0.058008
v -0.148671 -0.064354 0.029572
v -0.151583 -0.064354 0.000000
v -0.148671 -0.064354 -0.029572
v -0.140045 -0.064354 -0.058008
v -0.126037 -0.064354 -0.084215
v -0.107186 -0.064354 -0.107186
v -0.084215 -0.064354 -0.126037
v -0.058008 -0.064354 -0.140045
v -0.029572 -0.064354 -0.148671
v 0.029572 0.014472 -0.148671
v -0.000000 0.014472 -0.151583
v 0.058008 0.014472 -0.140045
v 0.084215 0.014472 -0.126037
v 0.107186 0.014472 -0.107186
v 0.126037 0.014472 -0.084215
v 0.140045 0.014472 -0.058008
v 0.148671 0.014472 -0.029572
v 0.151583 0.014472 0.000000
v 0.148671 0.014472 0.029572
v 0.140045 0.014472 0.058008
v 0.126037 0.014472 0.084215
v 0.107186 0.014472 0.107186
v 0.084215 0.014472 0.126037
v 0.058008 0.014472 0.140045
v 0.029572 0.014472 0.148671
v -0.000000 0.014472 0.151583
v -0.029572 0.014472 0.148671
v -0.058008 0.014472 0.140045
v -0.084215 0.014472 0.126037
v -0.107186 0.014472 0.107186
v -0.126037 0.014472 0.084215
v -0.140045 0.014472 0.058008
v -0.148671 0.014472 0.029572
v -0.151583 0.014472 0.000000
v -0.148671 0.014472 -0.029572
v -0.140045 0.014472 -0.058008
v -0.126037 0.014472 -0.084215
v -0.107186 0.014472 -0.107186
v -0.084215 0.014472 -0.126037
v -0.058008 0.014472 -0.140045
v -0.029572 0.014472 -0.148671
v -0.000000 -1.175588 -0.437528
v 0.085358 -1.175588 -0.429121
v 0.167435 -1.175588 -0.404224
v 0.243078 -1.175588 -0.363792
v 0.309379 -1.175588 -0.309379
v 0.363792 -1.175588 -0.243078
v 0.404224 -1.175588 -0.167435
v 0.429121 -1.175588 -0.085358
v 0.437528 -1.175588 0.000000
v 0.429121 -1.175588 0.085358
v 0.404224 -1.175588 0.167435
v 0.363792 -1.175588 0.243078
v 0.309379 -1.175588 0.309379
v 0.243078 -1.175588 0.363792
v 0.167435 -1.175588 0.404224
v 0.085358 -1.175588 0.429121
v -0.000000 -1.175588 0.437528
v -0.085358 -1.175588 0.429121
v -0.167435 -1.175588 0.404224
v -0.243078 -1.175588 0.363792
v -0.309379 -1.175588 0.309379
v -0.363792 -1.175588 0.243078
v -0.404224 -1.175588 0.167435
v -0.429121 -1.175588 0.085358
v -0.437528 -1.175588 0.000000
v -0.429121 -1.175588 -0.085358
v -0.404224 -1.175588 -0.167435
v -0.363792 -1.175588 -0.243078
v -0.309379 -1.175588 -0.309379
v -0.243078 -1.175588 -0.363792
v -0.167435 -1.175588 -0.404224
v -0.085358 -1.175588 -0.429121
v 0.000000 -1.183123 -0.437528
v 0.085358 -1.183123 -0.429121
v 0.167435 -1.183123 -0.404224
v 0.243078 -1.183123 -0.363792
v 0.309379 -1.183123 -0.309379
v 0.363792 -1.183123 -0.243078
v 0.404224 -1.183123 -0.167435
v 0.429121 -1.183123 -0.085358
v 0.437528 -1.183123 0.000000
v 0.429121 -1.183123 0.085358
v 0.404224 -1.183123 0.167435
v 0.363792 -1.183123 0.243078
v 0.309379 -1.183123 0.309379
v 0.243078 -1.183123 0.363792
v 0.167435 -1.183123 0.404224
v 0.085358 -1.183123 0.429121
v 0.000000 -1.183123 0.437528
v -0.085358 -1.183123 0.429121
v -0.167435 -1.183123 0.404224
v -0.243078 -1.183123 0.363792
v -0.309379 -1.183123 0.309379
v -0.363792 -1.183123 0.243078
v -0.404224 -1.183123 0.167435
v -0.429121 -1.183123 0.085358
v -0.437528 -1.183123 0.000000
v -0.429121 -1.183123 -0.085358
v -0.404224 -1.183123 -0.167435
v -0.363792 -1.183123 -0.243078
v -0.309379 -1.183123 -0.309379
v -0.243078 -1.183123 -0.363792
v -0.167435 -1.183123 -0.404224
v -0.085358 -1.183123 -0.429121
vn 0.0980 -0.0000 -0.9952
vn 0.2903 -0.0000 -0.9569
vn 0.4714 -0.0000 -0.8819
vn 0.6344 -0.0000 -0.7730
vn 0.7730 -0.0000 -0.6344
vn 0.8819 -0.0000 -0.4714
vn 0.9569 -0.0000 -0.2903
vn 0.9952 -0.0000 -0.0980
vn 0.9952 -0.0000 0.0980
vn 0.9569 -0.0000 0.2903
vn 0.8819 -0.0000 0.4714
vn 0.7730 -0.0000 0.6344
vn 0.6344 -0.0000 0.7730
vn 0.4714 -0.0000 0.8819
vn 0.2903 -0.0000 0.9569
vn 0.0980 -0.0000 0.9952
vn -0.0980 -0.0000 0.9952
vn -0.2903 -0.0000 0.9569
vn -0.4714 -0.0000 0.8819
vn -0.6344 -0.0000 0.7730
vn -0.7730 -0.0000 0.6344
vn -0.8819 -0.0000 0.4714
vn -0.9569 -0.0000 0.2903
vn -0.9952 -0.0000 0.0980
vn -0.9952 -0.0000 -0.0980
vn -0.9569 -0.0000 -0.2903
vn -0.8819 -0.0000 -0.4714
vn -0.7730 -0.0000 -0.6344
vn -0.6344 -0.0000 -0.7730
vn -0.4714 -0.0000 -0.8819
vn 0.0295 0.9989 -0.0359
vn -0.2903 -0.0000 -0.9569
vn -0.0980 -0.0000 -0.9952
vn -0.0741 -0.9876 0.1387
vn 0.0295 0.9989 0.0359
vn -0.0409 0.9989 0.0219
vn -0.0135 0.9989 -0.0444
vn 0.0462 0.9989 0.0046
vn -0.0135 0.9989 0.0444
vn -0.0409 0.9989 -0.0219
vn 0.0359 0.9989 -0.0295
vn 0.0219 0.9989 0.0409
vn -0.0444 0.9989 0.0135
vn 0.0046 0.9989 -0.0462
vn -0.0046 0.9989 -0.0462
vn 0.0444 0.9989 0.0135
vn -0.0219 0.9989 0.0409
vn -0.0359 0.9989 -0.0295
vn 0.0409 0.9989 -0.0219
vn 0.0135 0.9989 0.0444
vn -0.0462 0.9989 0.0046
vn 0.0135 0.9989 -0.0444
vn 0.0409 0.9989 0.0219
vn -0.0295 0.9989 0.0359
vn -0.0295 0.9989 -0.0359
vn 0.0444 0.9989 -0.0135
vn 0.0046 0.9989 0.0462
vn -0.0462 0.9989 -0.0046
vn 0.0219 0.9989 -0.0409
vn 0.0359 0.9989 0.0295
vn -0.0359 0.9989 0.0295
vn -0.0219 0.9989 -0.0409
vn 0.0462 0.9989 -0.0046
vn -0.0046 0.9989 0.0462
vn -0.0444 0.9989 -0.0135
vn -0.0000 1.0000 -0.0000
vn -0.1215 -0.9876 -0.0997
vn 0.1387 -0.9876 -0.0741
vn 0.0456 -0.9876 0.1505
vn -0.1565 -0.9876 0.0154
vn 0.0456 -0.9876 -0.1505
vn 0.1387 -0.9876 0.0741
vn -0.0997 -0.9876 0.1215
vn -0.0997 -0.9876 -0.1215
vn 0.1505 -0.9876 -0.0456
vn 0.0154 -0.9876 0.1565
vn -0.1565 -0.9876 -0.0154
vn 0.0741 -0.9876 -0.1387
vn 0.1215 -0.9876 0.0997
vn -0.1215 -0.9876 0.0997
vn -0.0741 -0.9876 -0.1387
vn 0.1565 -0.9876 -0.0154
vn -0.0154 -0.9876 0.1565
vn -0.1505 -0.9876 -0.0456
vn 0.0997 -0.9876 -0.1215
vn 0.0997 -0.9876 0.1215
vn -0.1387 -0.9876 0.0741
vn -0.0456 -0.9876 -0.1505
vn 0.1565 -0.9876 0.0154
vn -0.0456 -0.9876 0.1505
vn -0.1387 -0.9876 -0.0741
vn 0.1215 -0.9876 -0.0997
vn 0.0741 -0.9876 0.1387
vn -0.1505 -0.9876 0.0456
vn 0.0154 -0.9876 -0.1565
vn -0.0154 -0.9876 -0.1565
vn 0.1505 -0.9876 0.0456
vn -0.0000 -1.0000 -0.0000
vt 1.000000 0.500000
vt 1.000000 1.000000
vt 0.968750 1.000000
vt 0.968750 0.500000
vt 0.937500 1.000000
vt 0.937500 0.500000
vt 0.906250 1.000000
vt 0.906250 0.500000
vt 0.875000 1.000000
vt 0.875000 0.500000
vt 0.843750 1.000000
vt 0.843750 0.500000
vt 0.812500 1.000000
vt 0.812500 0.500000
vt 0.781250 1.000000
vt 0.781250 0.500000
vt 0.750000 1.000000
vt 0.750000 0.500000
vt 0.718750 1.000000
vt 0.718750 0.500000
vt 0.687500 1.000000
vt 0.687500 0.500000
vt 0.656250 1.000000
vt 0.656250 0.500000
vt 0.625000 1.000000
vt 0.625000 0.500000
vt 0.593750 1.000000
vt 0.593750 0.500000
vt 0.562500 1.000000
vt 0.562500 0.500000
vt 0.531250 1.000000
vt 0.531250 0.500000
vt 0.500000 1.000000
vt 0.500000 0.500000
vt 0.468750 1.000000
vt 0.468750 0.500000
vt 0.437500 1.000000
vt 0.437500 0.500000
vt 0.406250 1.000000
vt 0.406250 0.500000
vt 0.375000 1.000000
vt 0.375000 0.500000
vt 0.343750 1.000000
vt 0.343750 0.500000
vt 0.312500 1.000000
vt 0.312500 0.500000
vt 0.281250 1.000000
vt 0.281250 0.500000
vt 0.250000 1.000000
vt 0.250000 0.500000
vt 0.218750 1.000000
vt 0.218750 0.500000
vt 0.187500 1.000000
vt 0.187500 0.500000
vt 0.156250 1.000000
vt 0.156250 0.500000
vt 0.125000 1.000000
vt 0.125000 0.500000
vt 0.093750 1.000000
vt 0.093750 0.500000
vt 0.062500 1.000000
vt 0.062500 0.500000
vt 0.031250 1.000000
vt 0.031250 0.500000
vt 0.000000 1.000000
vt 0.000000 0.500000
vt 0.296822 0.485388
vt 0.250000 0.490000
vt 0.203178 0.485388
vt 0.158156 0.471731
vt 0.116663 0.449553
vt 0.080294 0.419706
vt 0.050447 0.383337
vt 0.028269 0.341844
vt 0.014612 0.296822
vt 0.010000 0.250000
vt 0.014612 0.203178
vt 0.028269 0.158156
vt 0.050447 0.116663
vt 0.080294 0.080294
vt 0.116663 0.050447
vt 0.158156 0.028269
vt 0.203178 0.014612
vt 0.250000 0.010000
vt 0.296822 0.014612
vt 0.341844 0.028269
vt 0.383337 0.050447
vt 0.419706 0.080294
vt 0.449553 0.116663
vt 0.471731 0.158156
vt 0.485388 0.203178
vt 0.490000 0.250000
vt 0.485388 0.296822
vt 0.471731 0.341844
vt 0.449553 0.383337
vt 0.419706 0.419706
vt 0.383337 0.449553
vt 0.341844 0.471731
vt 0.750000 0.490000
vt 0.796822 0.485388
vt 0.841844 0.471731
vt 0.883337 0.449553
vt 0.919706 0.419706
vt 0.949553 0.383337
vt 0.971731 0.341844
vt 0.985388 0.296822
vt 0.990000 0.250000
vt 0.985388 0.203178
vt 0.971731 0.158156
vt 0.949553 0.116663
vt 0.919706 0.080294
vt 0.883337 0.050447
vt 0.841844 0.028269
vt 0.796822 0.014612
vt 0.750000 0.010000
vt 0.703178 0.014612
vt 0.658156 0.028269
vt 0.616663 0.050447
vt 0.580294 0.080294
vt 0.550447 0.116663
vt 0.528269 0.158156
vt 0.514612 0.203178
vt 0.510000 0.250000
vt 0.514612 0.296822
vt 0.528269 0.341844
vt 0.550447 0.383337
vt 0.580294 0.419706
vt 0.616663 0.449553
vt 0.658156 0.471731
vt 0.703178 0.485388
s 0
usemtl Material.001
f 1/1/1 2/2/1 4/3/1 3/4/1
f 3/4/2 4/3/2 6/5/2 5/6/2
f 5/6/3 6/5/3 8/7/3 7/8/3
f 7/8/4 8/7/4 10/9/4 9/10/4
f 9/10/5 10/9/5 12/11/5 11/12/5
f 11/12/6 12/11/6 14/13/6 13/14/6
f 13/14/7 14/13/7 16/15/7 15/16/7
f 15/16/8 16/15/8 18/17/8 17/18/8
f 17/18/9 18/17/9 20/19/9 19/20/9
f 19/20/10 20/19/10 22/21/10 21/22/10
f 21/22/11 22/21/11 24/23/11 23/24/11
f 23/24/12 24/23/12 26/25/12 25/26/12
f 25/26/13 26/25/13 28/27/13 27/28/13
f 27/28/14 28/27/14 30/29/14 29/30/14
f 29/30/15 30/29/15 32/31/15 31/32/15
f 31/32/16 32/31/16 34/33/16 33/34/16
f 33/34/17 34/33/17 36/35/17 35/36/17
f 35/36/18 36/35/18 38/37/18 37/38/18
f 37/38/19 38/37/19 40/39/19 39/40/19
f 39/40/20 40/39/20 42/41/20 41/42/20
f 41/42/21 42/41/21 44/43/21 43/44/21
f 43/44/22 44/43/22 46/45/22 45/46/22
f 45/46/23 46/45/23 48/47/23 47/48/23
f 47/48/24 48/47/24 50/49/24 49/50/24
f 49/50/25 50/49/25 52/51/25 51/52/25
f 51/52/26 52/51/26 54/53/26 53/54/26
f 53/54/27 54/53/27 56/55/27 55/56/27
f 55/56/28 56/55/28 58/57/28 57/58/28
f 57/58/29 58/57/29 60/59/29 59/60/29
f 59/60/30 60/59/30 62/61/30 61/62/30
f 10/9/31 8/7/31 68/7/31 69/9/31
f 61/62/32 62/61/32 64/63/32 63/64/32
f 63/64/33 64/63/33 2/65/33 1/66/33
f 37/38/34 39/40/34 148/40/34 147/38/34
f 92/55/27 91/53/27 123/53/27 124/55/27
f 28/27/35 26/25/35 77/25/35 78/27/35
f 46/45/36 44/43/36 86/43/36 87/45/36
f 64/63/37 62/61/37 95/61/37 96/63/37
f 20/19/38 18/17/38 73/17/38 74/19/38
f 38/37/39 36/35/39 82/35/39 83/37/39
f 56/55/40 54/53/40 91/53/40 92/55/40
f 12/11/41 10/9/41 69/9/41 70/11/41
f 30/29/42 28/27/42 78/27/42 79/29/42
f 48/47/43 46/45/43 87/45/43 88/47/43
f 4/3/44 2/2/44 66/2/44 65/3/44
f 2/65/45 64/63/45 96/63/45 66/65/45
f 22/21/46 20/19/46 74/19/46 75/21/46
f 40/39/47 38/37/47 83/37/47 84/39/47
f 58/57/48 56/55/48 92/55/48 93/57/48
f 14/13/49 12/11/49 70/11/49 71/13/49
f 32/31/50 30/29/50 79/29/50 80/31/50
f 50/49/51 48/47/51 88/47/51 89/49/51
f 6/5/52 4/3/52 65/3/52 67/5/52
f 24/23/53 22/21/53 75/21/53 76/23/53
f 42/41/54 40/39/54 84/39/54 85/41/54
f 60/59/55 58/57/55 93/57/55 94/59/55
f 16/15/56 14/13/56 71/13/56 72/15/56
f 34/33/57 32/31/57 80/31/57 81/33/57
f 52/51/58 50/49/58 89/49/58 90/51/58
f 8/7/59 6/5/59 67/5/59 68/7/59
f 26/25/60 24/23/60 76/23/60 77/25/60
f 44/43/61 42/41/61 85/41/61 86/43/61
f 62/61/62 60/59/62 94/59/62 95/61/62
f 18/17/63 16/15/63 72/15/63 73/17/63
f 36/35/64 34/33/64 81/33/64 82/35/64
f 54/53/65 52/51/65 90/51/65 91/53/65
f 97/67/66 98/68/66 128/69/66 127/70/66 126/71/66 125/72/66 124/73/66 123/74/66 122/75/66 121/76/66 120/77/66 119/78/66 118/79/66 117/80/66 116/81/66 115/82/66 114/83/66 113/84/66 112/85/66 111/86/66 110/87/66 109/88/66 108/89/66 107/90/66 106/91/66 105/92/66 104/93/66 103/94/66 102/95/66 101/96/66 100/97/66 99/98/66
f 79/29/14 78/27/14 110/27/14 111/29/14
f 65/3/1 66/2/1 98/2/1 97/3/1
f 93/57/28 92/55/28 124/55/28 125/57/28
f 80/31/15 79/29/15 111/29/15 112/31/15
f 67/5/2 65/3/2 97/3/2 99/5/2
f 94/59/29 93/57/29 125/57/29 126/59/29
f 81/33/16 80/31/16 112/31/16 113/33/16
f 68/7/3 67/5/3 99/5/3 100/7/3
f 95/61/30 94/59/30 126/59/30 127/61/30
f 82/35/17 81/33/17 113/33/17 114/35/17
f 69/9/4 68/7/4 100/7/4 101/9/4
f 96/63/32 95/61/32 127/61/32 128/63/32
f 83/37/18 82/35/18 114/35/18 115/37/18
f 70/11/5 69/9/5 101/9/5 102/11/5
f 66/65/33 96/63/33 128/63/33 98/65/33
f 84/39/19 83/37/19 115/37/19 116/39/19
f 71/13/6 70/11/6 102/11/6 103/13/6
f 85/41/20 84/39/20 116/39/20 117/41/20
f 72/15/7 71/13/7 103/13/7 104/15/7
f 86/43/21 85/41/21 117/41/21 118/43/21
f 73/17/8 72/15/8 104/15/8 105/17/8
f 87/45/22 86/43/22 118/43/22 119/45/22
f 74/19/9 73/17/9 105/17/9 106/19/9
f 88/47/23 87/45/23 119/45/23 120/47/23
f 75/21/10 74/19/10 106/19/10 107/21/10
f 89/49/24 88/47/24 120/47/24 121/49/24
f 76/23/11 75/21/11 107/21/11 108/23/11
f 90/51/25 89/49/25 121/49/25 122/51/25
f 77/25/12 76/23/12 108/23/12 109/25/12
f 91/53/26 90/51/26 122/51/26 123/53/26
f 78/27/13 77/25/13 109/25/13 110/27/13
f 148/40/20 149/42/20 181/42/20 180/40/20
f 55/56/67 57/58/67 157/58/67 156/56/67
f 11/12/68 13/14/68 135/14/68 134/12/68
f 29/30/69 31/32/69 144/32/69 143/30/69
f 47/48/70 49/50/70 153/50/70 152/48/70
f 3/4/71 5/6/71 131/6/71 130/4/71
f 21/22/72 23/24/72 140/24/72 139/22/72
f 39/40/73 41/42/73 149/42/73 148/40/73
f 57/58/74 59/60/74 158/60/74 157/58/74
f 13/14/75 15/16/75 136/16/75 135/14/75
f 31/32/76 33/34/76 145/34/76 144/32/76
f 49/50/77 51/52/77 154/52/77 153/50/77
f 5/6/78 7/8/78 132/8/78 131/6/78
f 23/24/79 25/26/79 141/26/79 140/24/79
f 41/42/80 43/44/80 150/44/80 149/42/80
f 59/60/81 61/62/81 159/62/81 158/60/81
f 15/16/82 17/18/82 137/18/82 136/16/82
f 33/34/83 35/36/83 146/36/83 145/34/83
f 51/52/84 53/54/84 155/54/84 154/52/84
f 7/8/85 9/10/85 133/10/85 132/8/85
f 25/26/86 27/28/86 142/28/86 141/26/86
f 43/44/87 45/46/87 151/46/87 150/44/87
f 61/62/88 63/64/88 160/64/88 159/62/88
f 17/18/89 19/20/89 138/20/89 137/18/89
f 35/36/90 37/38/90 147/38/90 146/36/90
f 53/54/91 55/56/91 156/56/91 155/54/91
f 9/10/92 11/12/92 134/12/92 133/10/92
f 27/28/93 29/30/93 143/30/93 142/28/93
f 45/46/94 47/48/94 152/48/94 151/46/94
f 1/1/95 3/4/95 130/4/95 129/1/95
f 63/64/96 1/66/96 129/66/96 160/64/96
f 19/20/97 21/22/97 139/22/97 138/20/97
f 161/99/98 162/100/98 163/101/98 164/102/98 165/103/98 166/104/98 167/105/98 168/106/98 169/107/98 170/108/98 171/109/98 172/110/98 173/111/98 174/112/98 175/113/98 176/114/98 177/115/98 178/116/98 179/117/98 180/118/98 181/119/98 182/120/98 183/121/98 184/122/98 185/123/98 186/124/98 187/125/98 188/126/98 189/127/98 190/128/98 191/129/98 192/130/98
f 135/14/7 136/16/7 168/16/7 167/14/7
f 149/42/21 150/44/21 182/44/21 181/42/21
f 136/16/8 137/18/8 169/18/8 168/16/8
f 150/44/22 151/46/22 183/46/22 182/44/22
f 137/18/9 138/20/9 170/20/9 169/18/9
f 151/46/23 152/48/23 184/48/23 183/46/23
f 138/20/10 139/22/10 171/22/10 170/20/10
f 152/48/24 153/50/24 185/50/24 184/48/24
f 139/22/11 140/24/11 172/24/11 171/22/11
f 153/50/25 154/52/25 186/52/25 185/50/25
f 140/24/12 141/26/12 173/26/12 172/24/12
f 154/52/26 155/54/26 187/54/26 186/52/26
f 141/26/13 142/28/13 174/28/13 173/26/13
f 155/54/27 156/56/27 188/56/27 187/54/27
f 142/28/14 143/30/14 175/30/14 174/28/14
f 129/1/1 130/4/1 162/4/1 161/1/1
f 156/56/28 157/58/28 189/58/28 188/56/28
f 143/30/15 144/32/15 176/32/15 175/30/15
f 130/4/2 131/6/2 163/6/2 162/4/2
f 157/58/29 158/60/29 190/60/29 189/58/29
f 144/32/16 145/34/16 177/34/16 176/32/16
f 131/6/3 132/8/3 164/8/3 163/6/3
f 158/60/30 159/62/30 191/62/30 190/60/30
f 145/34/17 146/36/17 178/36/17 177/34/17
f 132/8/4 133/10/4 165/10/4 164/8/4
f 159/62/32 160/64/32 192/64/32 191/62/32
f 146/36/18 147/38/18 179/38/18 178/36/18
f 133/10/5 134/12/5 166/12/5 165/10/5
f 160/64/33 129/66/33 161/66/33 192/64/33
f 147/38/19 148/40/19 180/40/19 179/38/19
f 134/12/6 135/14/6 167/14/6 166/12/6
