{"asset":{"version":"2.0","generator":"Blockbench 4.12.6 glTF exporter"},"scenes":[{"nodes":[4],"name":"blockbench_export"}],"scene":0,"nodes":[{"translation":[0,0.046875,0],"name":"holder","mesh":0},{"translation":[0,0.125,0],"name":"fuseBox","children":[0]},{"translation":[0,0.109375,-0.15625],"name":"fuse","mesh":1},{"translation":[0,0.0625,0],"name":"fuse","children":[2]},{"children":[1,3]}],"bufferViews":[{"buffer":0,"byteOffset":0,"byteLength":3936,"target":34962,"byteStride":12},{"buffer":0,"byteOffset":3936,"byteLength":3936,"target":34962,"byteStride":12},{"buffer":0,"byteOffset":7872,"byteLength":2624,"target":34962,"byteStride":8},{"buffer":0,"byteOffset":10496,"byteLength":984,"target":34963},{"buffer":0,"byteOffset":11480,"byteLength":1440,"target":34962,"byteStride":12},{"buffer":0,"byteOffset":12920,"byteLength":1440,"target":34962,"byteStride":12},{"buffer":0,"byteOffset":14360,"byteLength":960,"target":34962,"byteStride":8},{"buffer":0,"byteOffset":15320,"byteLength":288,"target":34963}],"buffers":[{"byteLength":15608,"uri":"data:application/octet-stream;base64,"}],"accessors":[{"bufferView":0,"componentType":5126,"count":328,"max":[0.16919417679309845,0.6691941618919373,0.03125],"min":[-0.16919417679309845,-0.16919417679309845,-0.28125],"type":"VEC3"},{"bufferView":1,"componentType":5126,"count":328,"max":[1,1,1],"min":[-1,-1,-1],"type":"VEC3"},{"bufferView":2,"componentType":5126,"count":328,"max":[0.421875,0.5064718723297119],"min":[0,0],"type":"VEC2"},{"bufferView":3,"componentType":5123,"count":492,"max":[327],"min":[0],"type":"SCALAR"},{"bufferView":4,"componentType":5126,"count":120,"max":[0.125,0.5,0.125],"min":[-0.125,0,-0.125],"type":"VEC3"},{"bufferView":5,"componentType":5126,"count":120,"max":[1,1,1],"min":[-1,-1,-1],"type":"VEC3"},{"bufferView":6,"componentType":5126,"count":120,"max":[0.4375,0.53125],"min":[0.004446874838322401,0],"type":"VEC2"},{"bufferView":7,"componentType":5123,"count":144,"max":[119],"min":[0],"type":"SCALAR"}],"materials":[{"pbrMetallicRoughness":{"metallicFactor":0,"roughnessFactor":1,"baseColorTexture":{"index":0}},"alphaMode":"MASK","alphaCutoff":0.05,"doubleSided":true},{"pbrMetallicRoughness":{"metallicFactor":0,"roughnessFactor":1,"baseColorTexture":{"index":1}},"alphaMode":"MASK","alphaCutoff":0.05,"doubleSided":true}],"textures":[{"sampler":0,"source":0,"name":"holder"},{"sampler":1,"source":1,"name":"fuse"}],"samplers":[{"magFilter":9728,"minFilter":9728,"wrapS":33071,"wrapT":33071},{"magFilter":9728,"minFilter":9728,"wrapS":33071,"wrapT":33071}],"images":[{"mimeType":"image/png","uri":"data:image/png;base64,"},{"mimeType":"image/png","uri":"data:image/png;base64,"}],"meshes":[{"primitives":[{"mode":4,"attributes":{"POSITION":0,"NORMAL":1,"TEXCOORD_0":2},"indices":3,"material":0}]},{"primitives":[{"mode":4,"attributes":{"POSITION":4,"NORMAL":5,"TEXCOORD_0":6},"indices":7,"material":1}]}]}