{"asset":{"version":"2.0","generator":"Blockbench 4.12.6 glTF exporter"},"scenes":[{"nodes":[3],"name":"blockbench_export"}],"scene":0,"nodes":[{"rotation":[-0.19393077112596566,-0.021238873671759306,-0.10677502837830746,0.9749558244199863],"translation":[0.0625,0,-0.0625],"name":"cylinder","mesh":0},{"rotation":[0.2781658050160111,-0.06814233231316902,-0.08490358641986179,0.954343642761747],"translation":[0.0625,-0.0625,0],"name":"cylinder","mesh":1},{"rotation":[-0.03044226135735473,-0.03317245438207804,0.1376599277891149,0.9894557096074665],"translation":[-0.078125,0,0],"name":"cylinder","mesh":2},{"children":[0,1,2]}],"bufferViews":[{"buffer":0,"byteOffset":0,"byteLength":720,"target":34962,"byteStride":12},{"buffer":0,"byteOffset":720,"byteLength":720,"target":34962,"byteStride":12},{"buffer":0,"byteOffset":1440,"byteLength":480,"target":34962,"byteStride":8},{"buffer":0,"byteOffset":1920,"byteLength":144,"target":34963},{"buffer":0,"byteOffset":2064,"byteLength":720,"target":34962,"byteStride":12},{"buffer":0,"byteOffset":2784,"byteLength":720,"target":34962,"byteStride":12},{"buffer":0,"byteOffset":3504,"byteLength":480,"target":34962,"byteStride":8},{"buffer":0,"byteOffset":3984,"byteLength":144,"target":34963},{"buffer":0,"byteOffset":4128,"byteLength":720,"target":34962,"byteStride":12},{"buffer":0,"byteOffset":4848,"byteLength":720,"target":34962,"byteStride":12},{"buffer":0,"byteOffset":5568,"byteLength":480,"target":34962,"byteStride":8},{"buffer":0,"byteOffset":6048,"byteLength":144,"target":34963}],"buffers":[{"byteLength":6192,"uri":"data:application/octet-stream;base64,"}],"accessors":[{"bufferView":0,"componentType":5126,"count":60,"max":[0.14433756470680237,0.375,0.125],"min":[-0.14433756470680237,-0.0625,-0.125],"type":"VEC3"},{"bufferView":1,"componentType":5126,"count":60,"max":[0.8660253882408142,0.7071067690849304,1],"min":[-0.8660253882408142,-1,-1],"type":"VEC3"},{"bufferView":2,"componentType":5126,"count":60,"max":[0.44181519746780396,0.5642195343971252],"min":[0,0],"type":"VEC2"},{"bufferView":3,"componentType":5123,"count":72,"max":[59],"min":[0],"type":"SCALAR"},{"bufferView":4,"componentType":5126,"count":60,"max":[0.14433756470680237,0.34375,0.125],"min":[-0.14433756470680237,0.03125,-0.125],"type":"VEC3"},{"bufferView":5,"componentType":5126,"count":60,"max":[0.8660253882408142,0.7682212591171265,1],"min":[-0.8660253882408142,-1,-1],"type":"VEC3"},{"bufferView":6,"componentType":5126,"count":60,"max":[0.875,0.9375],"min":[0.01191249955445528,0],"type":"VEC2"},{"bufferView":7,"componentType":5123,"count":72,"max":[59],"min":[0],"type":"SCALAR"},{"bufferView":8,"componentType":5126,"count":60,"max":[0.14433756470680237,0.4375,0.125],"min":[-0.14433756470680237,-0.125,-0.125],"type":"VEC3"},{"bufferView":9,"componentType":5126,"count":60,"max":[0.8660253882408142,0.6139405965805054,1],"min":[-0.8660253882408142,-1,-1],"type":"VEC3"},{"bufferView":10,"componentType":5126,"count":60,"max":[0.453125,0.5455090999603271],"min":[0,0],"type":"VEC2"},{"bufferView":11,"componentType":5123,"count":72,"max":[59],"min":[0],"type":"SCALAR"}],"materials":[{"pbrMetallicRoughness":{"metallicFactor":0,"roughnessFactor":1,"baseColorTexture":{"index":0}},"alphaMode":"MASK","alphaCutoff":0.05,"doubleSided":true},{"pbrMetallicRoughness":{"metallicFactor":0,"roughnessFactor":1,"baseColorTexture":{"index":1}},"alphaMode":"MASK","alphaCutoff":0.05,"doubleSided":true},{"pbrMetallicRoughness":{"metallicFactor":0,"roughnessFactor":1,"baseColorTexture":{"index":2}},"alphaMode":"MASK","alphaCutoff":0.05,"doubleSided":true}],"textures":[{"sampler":0,"source":0,"name":"texture"},{"sampler":1,"source":1,"name":"texturered"},{"sampler":2,"source":2,"name":"green"}],"samplers":[{"magFilter":9728,"minFilter":9728,"wrapS":33071,"wrapT":33071},{"magFilter":9728,"minFilter":9728,"wrapS":33071,"wrapT":33071},{"magFilter":9728,"minFilter":9728,"wrapS":33071,"wrapT":33071}],"images":[{"mimeType":"image/png","uri":"data:image/png;base64,"},{"mimeType":"image/png","uri":"data:image/png;base64,"},{"mimeType":"image/png","uri":"data:image/png;base64,"}],"meshes":[{"primitives":[{"mode":4,"attributes":{"POSITION":0,"NORMAL":1,"TEXCOORD_0":2},"indices":3,"material":0}]},{"primitives":[{"mode":4,"attributes":{"POSITION":4,"NORMAL":5,"TEXCOORD_0":6},"indices":7,"material":1}]},{"primitives":[{"mode":4,"attributes":{"POSITION":8,"NORMAL":9,"TEXCOORD_0":10},"indices":11,"material":2}]}]}