{"asset":{"version":"2.0","generator":"Blockbench 4.12.6 glTF exporter"},"scenes":[{"nodes":[1],"name":"blockbench_export"}],"scene":0,"nodes":[{"rotation":[-0.10886687485196457,0,0,0.9940563382223196],"translation":[-0.5625,1.25,-0.9375],"name":"terminal","mesh":0},{"children":[0]}],"bufferViews":[{"buffer":0,"byteOffset":0,"byteLength":3408,"target":34962,"byteStride":12},{"buffer":0,"byteOffset":3408,"byteLength":3408,"target":34962,"byteStride":12},{"buffer":0,"byteOffset":6816,"byteLength":2272,"target":34962,"byteStride":8},{"buffer":0,"byteOffset":9088,"byteLength":72,"target":34963},{"buffer":0,"byteOffset":9160,"byteLength":552,"target":34963},{"buffer":0,"byteOffset":9712,"byteLength":216,"target":34963}],"buffers":[{"byteLength":9928,"uri":"data:application/octet-stream;base64,"}],"accessors":[{"bufferView":0,"componentType":5126,"count":284,"max":[1.75,1.491788625717163,1.7551398277282715],"min":[-0.625,-1.5315020084381104,-0.4536050260066986],"type":"VEC3"},{"bufferView":1,"componentType":5126,"count":284,"max":[1,1,1],"min":[-1,-1,-1],"type":"VEC3"},{"bufferView":2,"componentType":5126,"count":284,"max":[0.7265625,0.75],"min":[0,0],"type":"VEC2"},{"bufferView":3,"componentType":5123,"count":36,"max":[23],"min":[0],"type":"SCALAR"},{"bufferView":4,"componentType":5123,"count":276,"max":[211],"min":[24],"type":"SCALAR"},{"bufferView":5,"componentType":5123,"count":108,"max":[283],"min":[212],"type":"SCALAR"}],"materials":[{"pbrMetallicRoughness":{"metallicFactor":0,"roughnessFactor":1,"baseColorTexture":{"index":0}},"alphaMode":"MASK","alphaCutoff":0.05,"doubleSided":true},{"pbrMetallicRoughness":{"metallicFactor":0,"roughnessFactor":1,"baseColorTexture":{"index":1}},"alphaMode":"MASK","alphaCutoff":0.05,"doubleSided":true},{"pbrMetallicRoughness":{"metallicFactor":0,"roughnessFactor":1,"baseColorTexture":{"index":2}},"alphaMode":"MASK","alphaCutoff":0.05,"doubleSided":true}],"textures":[{"sampler":0,"source":0,"name":"keyboard_texture.png"},{"sampler":1,"source":1,"name":"terminal_texture.png"},{"sampler":2,"source":2,"name":"station_texture.png"}],"samplers":[{"magFilter":9728,"minFilter":9728,"wrapS":33071,"wrapT":33071},{"magFilter":9728,"minFilter":9728,"wrapS":33071,"wrapT":33071},{"magFilter":9728,"minFilter":9728,"wrapS":33071,"wrapT":33071}],"images":[{"mimeType":"image/png","uri":"data:image/png;base64,"},{"mimeType":"image/png","uri":"data:image/png;base64,"},{"mimeType":"image/png","uri":"data:image/png;base64,"}],"meshes":[{"primitives":[{"mode":4,"attributes":{"POSITION":0,"NORMAL":1,"TEXCOORD_0":2},"indices":3,"material":0},{"mode":4,"attributes":{"POSITION":0,"NORMAL":1,"TEXCOORD_0":2},"indices":4,"material":1},{"mode":4,"attributes":{"POSITION":0,"NORMAL":1,"TEXCOORD_0":2},"indices":5,"material":2}]}]}