{"asset":{"version":"2.0","generator":"Blockbench 4.12.6 glTF exporter"},"scenes":[{"nodes":[3],"name":"blockbench_export"}],"scene":0,"nodes":[{"translation":[0,0.5,0],"name":"screen","mesh":0},{"translation":[0,0,-0.8125],"name":"station","mesh":1},{"rotation":[-0.10886687485196457,0,0,0.9940563382223196],"translation":[-0.5625,1.25,-0.9375],"name":"keyboard","mesh":2},{"children":[0,1,2]}],"bufferViews":[{"buffer":0,"byteOffset":0,"byteLength":2256,"target":34962,"byteStride":12},{"buffer":0,"byteOffset":2256,"byteLength":2256,"target":34962,"byteStride":12},{"buffer":0,"byteOffset":4512,"byteLength":1504,"target":34962,"byteStride":8},{"buffer":0,"byteOffset":6016,"byteLength":552,"target":34963},{"buffer":0,"byteOffset":6568,"byteLength":864,"target":34962,"byteStride":12},{"buffer":0,"byteOffset":7432,"byteLength":864,"target":34962,"byteStride":12},{"buffer":0,"byteOffset":8296,"byteLength":576,"target":34962,"byteStride":8},{"buffer":0,"byteOffset":8872,"byteLength":216,"target":34963},{"buffer":0,"byteOffset":9088,"byteLength":288,"target":34962,"byteStride":12},{"buffer":0,"byteOffset":9376,"byteLength":288,"target":34962,"byteStride":12},{"buffer":0,"byteOffset":9664,"byteLength":192,"target":34962,"byteStride":8},{"buffer":0,"byteOffset":9856,"byteLength":72,"target":34963}],"buffers":[{"byteLength":9928,"uri":"data:application/octet-stream;base64,"}],"accessors":[{"bufferView":0,"componentType":5126,"count":188,"max":[1.1875,2.375,0.5],"min":[-1.1875,-0.5,-0.5],"type":"VEC3"},{"bufferView":1,"componentType":5126,"count":188,"max":[1,1,1],"min":[-1,-1,-1],"type":"VEC3"},{"bufferView":2,"componentType":5126,"count":188,"max":[0.7265625,0.75],"min":[0,0],"type":"VEC2"},{"bufferView":3,"componentType":5123,"count":276,"max":[187],"min":[0],"type":"SCALAR"},{"bufferView":4,"componentType":5126,"count":72,"max":[1,1.380137324333191,0.37499967217445374],"min":[-1,0,-0.3125],"type":"VEC3"},{"bufferView":5,"componentType":5126,"count":72,"max":[1,1,1],"min":[-1,-1,-1],"type":"VEC3"},{"bufferView":6,"componentType":5126,"count":72,"max":[0.6015625,0.48501718044281006],"min":[0,0],"type":"VEC2"},{"bufferView":7,"componentType":5123,"count":108,"max":[71],"min":[0],"type":"SCALAR"},{"bufferView":8,"componentType":5126,"count":24,"max":[1.1875,0.0625,0.375],"min":[-0.0625,0,-0.0625],"type":"VEC3"},{"bufferView":9,"componentType":5126,"count":24,"max":[1,1,1],"min":[-1,-1,-1],"type":"VEC3"},{"bufferView":10,"componentType":5126,"count":24,"max":[0.625,0.53125],"min":[0,0],"type":"VEC2"},{"bufferView":11,"componentType":5123,"count":36,"max":[23],"min":[0],"type":"SCALAR"}],"materials":[{"pbrMetallicRoughness":{"metallicFactor":0,"roughnessFactor":1,"baseColorTexture":{"index":0}},"alphaMode":"MASK","alphaCutoff":0.05,"doubleSided":true},{"pbrMetallicRoughness":{"metallicFactor":0,"roughnessFactor":1,"baseColorTexture":{"index":1}},"alphaMode":"MASK","alphaCutoff":0.05,"doubleSided":true},{"pbrMetallicRoughness":{"metallicFactor":0,"roughnessFactor":1,"baseColorTexture":{"index":2}},"alphaMode":"MASK","alphaCutoff":0.05,"doubleSided":true}],"textures":[{"sampler":0,"source":0,"name":"terminal_texture"},{"sampler":1,"source":1,"name":"station_texture"},{"sampler":2,"source":2,"name":"keyboard_texture"}],"samplers":[{"magFilter":9728,"minFilter":9728,"wrapS":33071,"wrapT":33071},{"magFilter":9728,"minFilter":9728,"wrapS":33071,"wrapT":33071},{"magFilter":9728,"minFilter":9728,"wrapS":33071,"wrapT":33071}],"images":[{"mimeType":"image/png","uri":"data:image/png;base64,"},{"mimeType":"image/png","uri":"data:image/png;base64,"},{"mimeType":"image/png","uri":"data:image/png;base64,"}],"meshes":[{"primitives":[{"mode":4,"attributes":{"POSITION":0,"NORMAL":1,"TEXCOORD_0":2},"indices":3,"material":0}]},{"primitives":[{"mode":4,"attributes":{"POSITION":4,"NORMAL":5,"TEXCOORD_0":6},"indices":7,"material":1}]},{"primitives":[{"mode":4,"attributes":{"POSITION":8,"NORMAL":9,"TEXCOORD_0":10},"indices":11,"material":2}]}]}