{"asset":{"version":"2.0","generator":"Blockbench 4.12.6 glTF exporter"},"scenes":[{"nodes":[1],"name":"blockbench_export"}],"scene":0,"nodes":[{"name":"mesh","mesh":0},{"children":[0]}],"bufferViews":[{"buffer":0,"byteOffset":0,"byteLength":2052,"target":34962,"byteStride":12},{"buffer":0,"byteOffset":2052,"byteLength":2052,"target":34962,"byteStride":12},{"buffer":0,"byteOffset":4104,"byteLength":1368,"target":34962,"byteStride":8},{"buffer":0,"byteOffset":5472,"byteLength":344,"target":34963}],"buffers":[{"byteLength":5816,"uri":"data:application/octet-stream;base64,"}],"accessors":[{"bufferView":0,"componentType":5126,"count":171,"max":[10,0.5,10],"min":[-10,-5.551115123125783e-17,-10],"type":"VEC3"},{"bufferView":1,"componentType":5126,"count":171,"max":[1,1,1],"min":[-1,-1,-1],"type":"VEC3"},{"bufferView":2,"componentType":5126,"count":171,"max":[0.00004999999873689376,0.000050008296966552734],"min":[0,0],"type":"VEC2"},{"bufferView":3,"componentType":5123,"count":171,"max":[170],"min":[0],"type":"SCALAR"}],"materials":[{"pbrMetallicRoughness":{"metallicFactor":0,"roughnessFactor":1},"alphaMode":"MASK","alphaCutoff":0.05,"doubleSided":true}],"meshes":[{"primitives":[{"mode":4,"attributes":{"POSITION":0,"NORMAL":1,"TEXCOORD_0":2},"indices":3,"material":0}]}]}