{"asset":{"version":"2.0","generator":"Blockbench 4.12.6 glTF exporter"},"scenes":[{"nodes":[11],"name":"blockbench_export"}],"scene":0,"nodes":[{"name":"plastic box","mesh":0},{"rotation":[0.13052619222005157,0,0,0.9914448613738104],"translation":[0,0.125,0.21875],"name":"tall sheet","mesh":1},{"rotation":[0.1521233861899167,0,0,0.9883615104677607],"translation":[0,0.125,0.171875],"name":"short sheet","mesh":2},{"rotation":[-0.06515425057767779,-0.005700258306074188,0.08696913561223889,0.9940617687738348],"translation":[-0.140625,-0.03125,-0.171875],"name":"bolt","mesh":3},{"rotation":[-0.1057103137458055,0.13776436104744086,-0.5995129804926639,0.7813005161995968],"translation":[-0.28125,0.0625,0.015625],"name":"bolt","mesh":4},{"rotation":[-0.18015032057085006,-0.7335381740507182,-0.06955266205585259,0.6516364296212288],"translation":[-0.015625,-0.03125,0.0625],"name":"bolt","mesh":5},{"name":"bolt","mesh":6},{"name":"cuboid","mesh":7},{"rotation":[0,-0.7071067811865475,0,0.7071067811865476],"name":"cuboid","mesh":8},{"name":"mesh","mesh":9},{"name":"making bolt","children":[6,7,8,9]},{"children":[0,1,2,3,4,5,10]}],"bufferViews":[{"buffer":0,"byteOffset":0,"byteLength":672,"target":34962,"byteStride":12},{"buffer":0,"byteOffset":672,"byteLength":672,"target":34962,"byteStride":12},{"buffer":0,"byteOffset":1344,"byteLength":448,"target":34962,"byteStride":8},{"buffer":0,"byteOffset":1792,"byteLength":168,"target":34963},{"buffer":0,"byteOffset":1960,"byteLength":288,"target":34962,"byteStride":12},{"buffer":0,"byteOffset":2248,"byteLength":288,"target":34962,"byteStride":12},{"buffer":0,"byteOffset":2536,"byteLength":192,"target":34962,"byteStride":8},{"buffer":0,"byteOffset":2728,"byteLength":72,"target":34963},{"buffer":0,"byteOffset":2800,"byteLength":288,"target":34962,"byteStride":12},{"buffer":0,"byteOffset":3088,"byteLength":288,"target":34962,"byteStride":12},{"buffer":0,"byteOffset":3376,"byteLength":192,"target":34962,"byteStride":8},{"buffer":0,"byteOffset":3568,"byteLength":72,"target":34963},{"buffer":0,"byteOffset":3640,"byteLength":8676,"target":34962,"byteStride":12},{"buffer":0,"byteOffset":12316,"byteLength":8676,"target":34962,"byteStride":12},{"buffer":0,"byteOffset":20992,"byteLength":5784,"target":34962,"byteStride":8},{"buffer":0,"byteOffset":26776,"byteLength":1448,"target":34963},{"buffer":0,"byteOffset":28224,"byteLength":8676,"target":34962,"byteStride":12},{"buffer":0,"byteOffset":36900,"byteLength":8676,"target":34962,"byteStride":12},{"buffer":0,"byteOffset":45576,"byteLength":5784,"target":34962,"byteStride":8},{"buffer":0,"byteOffset":51360,"byteLength":1448,"target":34963},{"buffer":0,"byteOffset":52808,"byteLength":8676,"target":34962,"byteStride":12},{"buffer":0,"byteOffset":61484,"byteLength":8676,"target":34962,"byteStride":12},{"buffer":0,"byteOffset":70160,"byteLength":5784,"target":34962,"byteStride":8},{"buffer":0,"byteOffset":75944,"byteLength":1448,"target":34963},{"buffer":0,"byteOffset":77392,"byteLength":3168,"target":34962,"byteStride":12},{"buffer":0,"byteOffset":80560,"byteLength":3168,"target":34962,"byteStride":12},{"buffer":0,"byteOffset":83728,"byteLength":2112,"target":34962,"byteStride":8},{"buffer":0,"byteOffset":85840,"byteLength":720,"target":34963},{"buffer":0,"byteOffset":86560,"byteLength":288,"target":34962,"byteStride":12},{"buffer":0,"byteOffset":86848,"byteLength":288,"target":34962,"byteStride":12},{"buffer":0,"byteOffset":87136,"byteLength":192,"target":34962,"byteStride":8},{"buffer":0,"byteOffset":87328,"byteLength":72,"target":34963},{"buffer":0,"byteOffset":87400,"byteLength":288,"target":34962,"byteStride":12},{"buffer":0,"byteOffset":87688,"byteLength":288,"target":34962,"byteStride":12},{"buffer":0,"byteOffset":87976,"byteLength":192,"target":34962,"byteStride":8},{"buffer":0,"byteOffset":88168,"byteLength":72,"target":34963},{"buffer":0,"byteOffset":88240,"byteLength":3276,"target":34962,"byteStride":12},{"buffer":0,"byteOffset":91516,"byteLength":3276,"target":34962,"byteStride":12},{"buffer":0,"byteOffset":94792,"byteLength":2184,"target":34962,"byteStride":8},{"buffer":0,"byteOffset":96976,"byteLength":548,"target":34963}],"buffers":[{"byteLength":97524,"uri":"data:application/octet-stream;base64,"}],"accessors":[{"bufferView":0,"componentType":5126,"count":56,"max":[0.3125,0.375,0.3125],"min":[-0.3125,0,-0.3125],"type":"VEC3"},{"bufferView":1,"componentType":5126,"count":56,"max":[1,1,1],"min":[-1,-1,-1],"type":"VEC3"},{"bufferView":2,"componentType":5126,"count":56,"max":[1,0.96875],"min":[0,0],"type":"VEC2"},{"bufferView":3,"componentType":5123,"count":84,"max":[55],"min":[0],"type":"SCALAR"},{"bufferView":4,"componentType":5126,"count":24,"max":[0.28125,0.625,0.0062500000931322575],"min":[-0.28125,-0.125,-0.0062500000931322575],"type":"VEC3"},{"bufferView":5,"componentType":5126,"count":24,"max":[1,1,1],"min":[-1,-1,-1],"type":"VEC3"},{"bufferView":6,"componentType":5126,"count":24,"max":[0.71875,0.78125],"min":[0,0],"type":"VEC2"},{"bufferView":7,"componentType":5123,"count":36,"max":[23],"min":[0],"type":"SCALAR"},{"bufferView":8,"componentType":5126,"count":24,"max":[0.28125,0.5,0.0062500000931322575],"min":[-0.28125,-0.125,-0.0062500000931322575],"type":"VEC3"},{"bufferView":9,"componentType":5126,"count":24,"max":[1,1,1],"min":[-1,-1,-1],"type":"VEC3"},{"bufferView":10,"componentType":5126,"count":24,"max":[0.59375,0.65625],"min":[0,0],"type":"VEC2"},{"bufferView":11,"componentType":5123,"count":36,"max":[23],"min":[0],"type":"SCALAR"},{"bufferView":12,"componentType":5126,"count":723,"max":[0.15625,0.5295774340629578,0.15625],"min":[-0.15625,0.0625,-0.15625],"type":"VEC3"},{"bufferView":13,"componentType":5126,"count":723,"max":[1,1,1],"min":[-1,-1,-1],"type":"VEC3"},{"bufferView":14,"componentType":5126,"count":723,"max":[0.640625,0.6363406181335449],"min":[0,0],"type":"VEC2"},{"bufferView":15,"componentType":5123,"count":723,"max":[722],"min":[0],"type":"SCALAR"},{"bufferView":16,"componentType":5126,"count":723,"max":[0.15625,0.5295774340629578,0.15625],"min":[-0.15625,0.0625,-0.15625],"type":"VEC3"},{"bufferView":17,"componentType":5126,"count":723,"max":[1,1,1],"min":[-1,-1,-1],"type":"VEC3"},{"bufferView":18,"componentType":5126,"count":723,"max":[0.640625,0.6363406181335449],"min":[0,0],"type":"VEC2"},{"bufferView":19,"componentType":5123,"count":723,"max":[722],"min":[0],"type":"SCALAR"},{"bufferView":20,"componentType":5126,"count":723,"max":[0.15625,0.5295774340629578,0.15625],"min":[-0.15625,0.0625,-0.15625],"type":"VEC3"},{"bufferView":21,"componentType":5126,"count":723,"max":[1,1,1],"min":[-1,-1,-1],"type":"VEC3"},{"bufferView":22,"componentType":5126,"count":723,"max":[0.640625,0.6363406181335449],"min":[0,0],"type":"VEC2"},{"bufferView":23,"componentType":5123,"count":723,"max":[722],"min":[0],"type":"SCALAR"},{"bufferView":24,"componentType":5126,"count":264,"max":[0.15625,0.53125,0.15625],"min":[-0.15625,0.0625,-0.15625],"type":"VEC3"},{"bufferView":25,"componentType":5126,"count":264,"max":[1,0.9969438314437866,1],"min":[-1,-1,-1],"type":"VEC3"},{"bufferView":26,"componentType":5126,"count":264,"max":[0.10156455636024475,0.25],"min":[0,0],"type":"VEC2"},{"bufferView":27,"componentType":5123,"count":360,"max":[263],"min":[0],"type":"SCALAR"},{"bufferView":28,"componentType":5126,"count":24,"max":[0.015625,0.5625,0.109375],"min":[-0.015625,0.5,-0.109375],"type":"VEC3"},{"bufferView":29,"componentType":5126,"count":24,"max":[1,1,1],"min":[-1,-1,-1],"type":"VEC3"},{"bufferView":30,"componentType":5126,"count":24,"max":[0.0625,0.3125],"min":[0,0],"type":"VEC2"},{"bufferView":31,"componentType":5123,"count":36,"max":[23],"min":[0],"type":"SCALAR"},{"bufferView":32,"componentType":5126,"count":24,"max":[0.015625,0.5625,0.109375],"min":[-0.015625,0.5,-0.109375],"type":"VEC3"},{"bufferView":33,"componentType":5126,"count":24,"max":[1,1,1],"min":[-1,-1,-1],"type":"VEC3"},{"bufferView":34,"componentType":5126,"count":24,"max":[0.0625,0.3125],"min":[0,0],"type":"VEC2"},{"bufferView":35,"componentType":5123,"count":36,"max":[23],"min":[0],"type":"SCALAR"},{"bufferView":36,"componentType":5126,"count":273,"max":[0.109375,0.5625,0.109375],"min":[-0.109375,0.5,-0.109375],"type":"VEC3"},{"bufferView":37,"componentType":5126,"count":273,"max":[1,1,1],"min":[-1,-1,-1],"type":"VEC3"},{"bufferView":38,"componentType":5126,"count":273,"max":[0.00004999999873689376,0.000050008296966552734],"min":[0,0],"type":"VEC2"},{"bufferView":39,"componentType":5123,"count":273,"max":[272],"min":[0],"type":"SCALAR"}],"materials":[{"pbrMetallicRoughness":{"metallicFactor":0,"roughnessFactor":1,"baseColorTexture":{"index":0}},"alphaMode":"MASK","alphaCutoff":0.05,"doubleSided":true},{"pbrMetallicRoughness":{"metallicFactor":0,"roughnessFactor":1,"baseColorTexture":{"index":1}},"alphaMode":"MASK","alphaCutoff":0.05,"doubleSided":true},{"pbrMetallicRoughness":{"metallicFactor":0,"roughnessFactor":1,"baseColorTexture":{"index":2}},"alphaMode":"MASK","alphaCutoff":0.05,"doubleSided":true},{"pbrMetallicRoughness":{"metallicFactor":0,"roughnessFactor":1,"baseColorTexture":{"index":3}},"alphaMode":"MASK","alphaCutoff":0.05,"doubleSided":true},{"pbrMetallicRoughness":{"metallicFactor":0,"roughnessFactor":1},"alphaMode":"MASK","alphaCutoff":0.05,"doubleSided":true},{"pbrMetallicRoughness":{"metallicFactor":0,"roughnessFactor":1},"alphaMode":"MASK","alphaCutoff":0.05,"doubleSided":true},{"pbrMetallicRoughness":{"metallicFactor":0,"roughnessFactor":1},"alphaMode":"MASK","alphaCutoff":0.05,"doubleSided":true}],"textures":[{"sampler":0,"source":0,"name":"plastic-crate"},{"sampler":1,"source":1,"name":"tall"},{"sampler":2,"source":2,"name":"short"},{"sampler":3,"source":3,"name":"bolt"}],"samplers":[{"magFilter":9728,"minFilter":9728,"wrapS":33071,"wrapT":33071},{"magFilter":9728,"minFilter":9728,"wrapS":33071,"wrapT":33071},{"magFilter":9728,"minFilter":9728,"wrapS":33071,"wrapT":33071},{"magFilter":9728,"minFilter":9728,"wrapS":33071,"wrapT":33071}],"images":[{"mimeType":"image/png","uri":"data:image/png;base64,"},{"mimeType":"image/png","uri":"data:image/png;base64,"},{"mimeType":"image/png","uri":"data:image/png;base64,"},{"mimeType":"image/png","uri":"data:image/png;base64,"}],"meshes":[{"primitives":[{"mode":4,"attributes":{"POSITION":0,"NORMAL":1,"TEXCOORD_0":2},"indices":3,"material":0}]},{"primitives":[{"mode":4,"attributes":{"POSITION":4,"NORMAL":5,"TEXCOORD_0":6},"indices":7,"material":1}]},{"primitives":[{"mode":4,"attributes":{"POSITION":8,"NORMAL":9,"TEXCOORD_0":10},"indices":11,"material":2}]},{"primitives":[{"mode":4,"attributes":{"POSITION":12,"NORMAL":13,"TEXCOORD_0":14},"indices":15,"material":3}]},{"primitives":[{"mode":4,"attributes":{"POSITION":16,"NORMAL":17,"TEXCOORD_0":18},"indices":19,"material":3}]},{"primitives":[{"mode":4,"attributes":{"POSITION":20,"NORMAL":21,"TEXCOORD_0":22},"indices":23,"material":3}]},{"primitives":[{"mode":4,"attributes":{"POSITION":24,"NORMAL":25,"TEXCOORD_0":26},"indices":27,"material":4}]},{"primitives":[{"mode":4,"attributes":{"POSITION":28,"NORMAL":29,"TEXCOORD_0":30},"indices":31,"material":5}]},{"primitives":[{"mode":4,"attributes":{"POSITION":32,"NORMAL":33,"TEXCOORD_0":34},"indices":35,"material":5}]},{"primitives":[{"mode":4,"attributes":{"POSITION":36,"NORMAL":37,"TEXCOORD_0":38},"indices":39,"material":6}]}]}