{"asset":{"version":"2.0","generator":"Blockbench 4.12.6 glTF exporter"},"scenes":[{"nodes":[3],"name":"blockbench_export"}],"scene":0,"nodes":[{"translation":[0.1875,0,0.1875],"name":"cuboid","mesh":0},{"rotation":[-0.609156103417925,-0.25232071963805225,-0.2877166381147634,0.6946094098570534],"translation":[-0.25,0.1875,0],"name":"cuboid","mesh":1},{"rotation":[-0.609156103417925,-0.25232071963805225,-0.2877166381147634,0.6946094098570534],"translation":[-0.3125,0.0625,0.375],"name":"cuboid","mesh":2},{"children":[0,1,2]}],"bufferViews":[{"buffer":0,"byteOffset":0,"byteLength":1320,"target":34962,"byteStride":12},{"buffer":0,"byteOffset":1320,"byteLength":1320,"target":34962,"byteStride":12},{"buffer":0,"byteOffset":2640,"byteLength":880,"target":34962,"byteStride":8},{"buffer":0,"byteOffset":3520,"byteLength":288,"target":34963},{"buffer":0,"byteOffset":3808,"byteLength":1320,"target":34962,"byteStride":12},{"buffer":0,"byteOffset":5128,"byteLength":1320,"target":34962,"byteStride":12},{"buffer":0,"byteOffset":6448,"byteLength":880,"target":34962,"byteStride":8},{"buffer":0,"byteOffset":7328,"byteLength":288,"target":34963},{"buffer":0,"byteOffset":7616,"byteLength":1320,"target":34962,"byteStride":12},{"buffer":0,"byteOffset":8936,"byteLength":1320,"target":34962,"byteStride":12},{"buffer":0,"byteOffset":10256,"byteLength":880,"target":34962,"byteStride":8},{"buffer":0,"byteOffset":11136,"byteLength":288,"target":34963}],"buffers":[{"byteLength":11424,"uri":"data:application/octet-stream;base64,"}],"accessors":[{"bufferView":0,"componentType":5126,"count":110,"max":[0.25,0.5317335724830627,0.25],"min":[-0.28337812423706055,-0.0625,-0.25],"type":"VEC3"},{"bufferView":1,"componentType":5126,"count":110,"max":[0.9597066044807434,0.947336733341217,0.9274235963821411],"min":[-0.92811518907547,-1,-0.9676392674446106],"type":"VEC3"},{"bufferView":2,"componentType":5126,"count":110,"max":[0.78125,0.7072941064834595],"min":[0,0],"type":"VEC2"},{"bufferView":3,"componentType":5123,"count":144,"max":[109],"min":[0],"type":"SCALAR"},{"bufferView":4,"componentType":5126,"count":110,"max":[0.3125,0.5942335724830627,0.375],"min":[-0.34587812423706055,-0.125,-0.375],"type":"VEC3"},{"bufferView":5,"componentType":5126,"count":110,"max":[0.9719630479812622,0.9512985348701477,0.8945026993751526],"min":[-0.9290673136711121,-1,-0.9532586336135864],"type":"VEC3"},{"bufferView":6,"componentType":5126,"count":110,"max":[0.78125,0.7072941064834595],"min":[0,0],"type":"VEC2"},{"bufferView":7,"componentType":5123,"count":144,"max":[109],"min":[0],"type":"SCALAR"},{"bufferView":8,"componentType":5126,"count":110,"max":[0.1875,0.40673354268074036,0.1875],"min":[-0.22087812423706055,0.0625,-0.1875],"type":"VEC3"},{"bufferView":9,"componentType":5126,"count":110,"max":[0.9577142000198364,0.9686425924301147,0.902290403842926],"min":[-0.8894792795181274,-1,-0.9686320424079895],"type":"VEC3"},{"bufferView":10,"componentType":5126,"count":110,"max":[0.78125,0.7072941064834595],"min":[0,0],"type":"VEC2"},{"bufferView":11,"componentType":5123,"count":144,"max":[109],"min":[0],"type":"SCALAR"}],"materials":[{"pbrMetallicRoughness":{"metallicFactor":0,"roughnessFactor":1,"baseColorTexture":{"index":0}},"alphaMode":"MASK","alphaCutoff":0.05,"doubleSided":true}],"textures":[{"sampler":0,"source":0,"name":"rock"}],"samplers":[{"magFilter":9728,"minFilter":9728,"wrapS":33071,"wrapT":33071}],"images":[{"mimeType":"image/png","uri":"data:image/png;base64,"}],"meshes":[{"primitives":[{"mode":4,"attributes":{"POSITION":0,"NORMAL":1,"TEXCOORD_0":2},"indices":3,"material":0}]},{"primitives":[{"mode":4,"attributes":{"POSITION":4,"NORMAL":5,"TEXCOORD_0":6},"indices":7,"material":0}]},{"primitives":[{"mode":4,"attributes":{"POSITION":8,"NORMAL":9,"TEXCOORD_0":10},"indices":11,"material":0}]}]}